<svg width="47" height="53" viewBox="0 0 47 53" fill="none" xmlns="http://www.w3.org/2000/svg">
<g clip-path="url(#clip0_16_5)">
<path fill-rule="evenodd" clip-rule="evenodd" d="M43.4523 15.9802C42.6167 16.9032 41.6441 17.727 40.5515 18.3956C40.4186 18.4948 40.2344 18.5077 40.0844 18.4085C38.4733 17.3777 37.115 16.1355 36.0524 14.7855C34.5827 12.9308 33.6572 10.8734 33.3401 8.89371C33.0188 6.88378 33.3187 4.95149 34.3128 3.37719C34.707 2.76041 35.2083 2.19107 35.8167 1.70369C37.2179 0.582268 38.8161 -0.0129465 40.4143 -7.04367e-06C41.9483 0.0129324 43.4651 0.586581 44.7763 1.78995C45.239 2.21264 45.6247 2.6914 45.9417 3.2176C47.0087 4.99031 47.24 7.24609 46.7687 9.53637C46.3059 11.8008 45.1576 14.0997 43.4523 15.9802ZM4.20777 27.9061H7.94411C8.56541 27.9061 9.04531 28.0614 9.37952 28.3719C9.71374 28.6824 9.88084 29.0663 9.88084 29.5235C9.88084 29.9074 9.76087 30.2395 9.5252 30.5112C9.36667 30.6967 9.13529 30.839 8.83107 30.9469C9.29383 31.059 9.63661 31.2488 9.85513 31.5248C10.0737 31.7965 10.1808 32.1416 10.1808 32.5557C10.1808 32.8921 10.1037 33.194 9.9494 33.4657C9.79515 33.7331 9.58091 33.9488 9.31096 34.1041C9.14386 34.199 8.89105 34.2723 8.55255 34.3154C8.10265 34.3758 7.807 34.406 7.65703 34.406H4.20777V27.9061ZM6.21734 30.4595H7.08715C7.39994 30.4595 7.61418 30.4034 7.73844 30.2956C7.85842 30.1877 7.92269 30.0325 7.92269 29.8254C7.92269 29.6357 7.8627 29.489 7.73844 29.3812C7.61847 29.2734 7.40423 29.2216 7.10001 29.2216H6.21734V30.4595ZM6.21734 33.0085H7.23284C7.57562 33.0085 7.81985 32.9482 7.96125 32.8231C8.10265 32.7023 8.17121 32.5384 8.17121 32.3314C8.17121 32.1373 8.10265 31.9863 7.96125 31.8699C7.81985 31.7534 7.57562 31.693 7.22855 31.693H6.21734V33.0085ZM41.3999 9.41129H39.1418L38.8161 10.4809H36.7808L39.2103 3.98103H41.3956L43.8165 10.4809H41.7298L41.3999 9.41129ZM40.9799 8.0052L40.2772 5.67179L39.5702 8.0052H40.9799ZM10.2322 39.7069C9.39666 40.6299 8.42401 41.4537 7.33139 42.1222C7.19856 42.2214 7.01431 42.2344 6.86434 42.1352C5.25326 41.1 3.89498 39.8621 2.83234 38.5121C1.36694 36.6618 0.441424 34.6044 0.124349 32.6204C-0.197011 30.6104 0.102925 28.6781 1.097 27.1081C1.48692 26.4871 1.98824 25.922 2.60096 25.4346C4.0021 24.3132 5.60033 23.718 7.19427 23.731C8.72823 23.7439 10.2451 24.3175 11.5562 25.5209C12.019 25.9436 12.4046 26.4224 12.7217 26.9486C13.7886 28.7213 14.02 30.977 13.5486 33.2673C13.0859 35.5274 11.9375 37.8263 10.2322 39.7069ZM7.31425 44.4427C9.24669 44.4427 10.8792 45.7453 11.3934 47.5223H37.0893C38.3576 47.5223 39.5145 47.0004 40.3544 46.155C41.1942 45.3096 41.7126 44.1494 41.7126 42.8684C41.7126 41.5917 41.1942 40.4272 40.3544 39.5818C39.5145 38.7364 38.3619 38.2145 37.0893 38.2145H28.0998C26.0817 38.2145 24.2478 37.3864 22.9195 36.0493C21.5912 34.7122 20.7685 32.8662 20.7685 30.8347C20.7685 28.8032 21.5912 26.9572 22.9195 25.6201C24.2478 24.283 26.0817 23.4549 28.0998 23.4549H36.2281C36.7851 21.7469 38.3833 20.5133 40.2644 20.5133C42.6124 20.5133 44.5149 22.4284 44.5149 24.792C44.5149 27.1556 42.6124 29.0706 40.2644 29.0706C38.4005 29.0706 36.8194 27.8629 36.2452 26.1851H28.0998C26.8315 26.1851 25.6746 26.707 24.8348 27.5524C23.995 28.3978 23.4765 29.558 23.4765 30.839C23.4765 32.1157 23.995 33.2803 24.8348 34.1256C25.6661 34.9624 26.8101 35.4843 28.0698 35.4929H37.0936C39.1118 35.4929 40.9457 36.321 42.274 37.6581C43.6022 38.9952 44.4249 40.8412 44.4249 42.8727C44.4249 44.9042 43.6022 46.7502 42.274 48.0873C40.9457 49.4244 39.1118 50.2525 37.0936 50.2525H11.2863C10.6735 51.8613 9.12672 53 7.31425 53C4.96618 53 3.06372 51.085 3.06372 48.7213C3.06372 46.3577 4.96618 44.4427 7.31425 44.4427Z" fill="white"/>
</g>
<defs>
<clipPath id="clip0_16_5">
<rect width="47" height="53" fill="white"/>
</clipPath>
</defs>
</svg>
