<svg width="378" height="660" viewBox="0 0 378 660" fill="none" xmlns="http://www.w3.org/2000/svg">
<g clip-path="url(#clip0_8_52)">
<path d="M378 319.5L377.67 320.32C377.53 320.667 377.31 320.723 377.01 320.49C358.82 306.37 335.72 308.18 315.66 316.67C303.513 321.81 291.843 327.88 280.65 334.88C267.497 343.107 254.487 351.177 241.62 359.09C232.473 364.723 223.587 369.56 214.96 373.6C197.54 381.78 179.22 387.45 160.29 386.15C140.58 384.8 121.34 374.29 108.03 360.09C89.71 340.55 88.78 310.58 96.08 286.18C101.23 268.97 109.94 253.75 121.68 240.33C129.39 231.51 137.4 222.59 143.4 212.61C150.83 200.27 153.59 183.62 146.65 170.74C140.65 159.6 128.16 154.79 115.85 157.26C101.96 160.06 91.03 170.61 84.31 182.94C76.87 196.573 72.0933 211.683 69.98 228.27C69.23 234.14 66.95 238.5 61.14 240.98C56.9067 242.78 52.8767 242.55 49.05 240.29C42.38 236.34 40.63 225.89 41.36 218.39C41.7467 214.41 42.4867 210.54 43.58 206.78C56.43 162.64 91.47 133.06 125.12 103.71C135.16 94.95 144.8 83.57 148.27 70.58C152.14 56.09 148.35 41.44 134.6 34.41C122.73 28.36 108.1 34.13 98.04 41C84.03 50.57 71.26 65.08 60.85 79.13C48.22 96.17 36.22 115.58 25.98 135.13C12.89 160.13 5.38 187.22 1.12 215.67C0.96 216.75 1.22 218.01 0.91 219.08C0.683333 219.86 0.526667 219.847 0.44 219.04L0 215" stroke="#158FE4" stroke-width="2"/>
<path d="M0 210.91V202.88" stroke="#158FE4" stroke-width="2"/>
<path d="M238.41 104.44C238.41 101.833 237.374 99.3326 235.531 97.4892C233.687 95.6457 231.187 94.61 228.58 94.61C227.289 94.61 226.011 94.8643 224.818 95.3583C223.626 95.8523 222.542 96.5764 221.629 97.4892C220.716 98.402 219.992 99.4856 219.498 100.678C219.004 101.871 218.75 103.149 218.75 104.44C218.75 105.731 219.004 107.009 219.498 108.202C219.992 109.394 220.716 110.478 221.629 111.391C222.542 112.304 223.626 113.028 224.818 113.522C226.011 114.016 227.289 114.27 228.58 114.27C231.187 114.27 233.687 113.234 235.531 111.391C237.374 109.547 238.41 107.047 238.41 104.44Z" stroke="#158FE4" stroke-width="2"/>
<path d="M323.78 236.13C323.78 232.046 322.158 228.129 319.269 225.241C316.381 222.353 312.464 220.73 308.38 220.73C304.296 220.73 300.379 222.353 297.491 225.241C294.603 228.129 292.98 232.046 292.98 236.13C292.98 238.152 293.378 240.155 294.152 242.023C294.926 243.892 296.061 245.589 297.491 247.019C298.921 248.449 300.618 249.584 302.487 250.358C304.355 251.132 306.358 251.53 308.38 251.53C310.402 251.53 312.405 251.132 314.273 250.358C316.142 249.584 317.839 248.449 319.269 247.019C320.699 245.589 321.834 243.892 322.608 242.023C323.382 240.155 323.78 238.152 323.78 236.13Z" stroke="#158FE4" stroke-width="2"/>
<path d="M180.62 323.23C180.62 319.754 179.935 316.312 178.605 313.1C177.275 309.889 175.325 306.971 172.867 304.513C170.409 302.055 167.491 300.105 164.28 298.775C161.068 297.445 157.626 296.76 154.15 296.76C150.674 296.76 147.232 297.445 144.02 298.775C140.809 300.105 137.891 302.055 135.433 304.513C132.975 306.971 131.025 309.889 129.695 313.1C128.365 316.312 127.68 319.754 127.68 323.23C127.68 330.25 130.469 336.983 135.433 341.947C140.397 346.911 147.13 349.7 154.15 349.7C161.17 349.7 167.903 346.911 172.867 341.947C177.831 336.983 180.62 330.25 180.62 323.23Z" stroke="#158FE4" stroke-width="2"/>
<path d="M67.66 370.31C67.66 368.385 67.2808 366.478 66.5441 364.7C65.8074 362.921 64.7275 361.305 63.3662 359.944C62.0049 358.583 60.3888 357.503 58.6102 356.766C56.8315 356.029 54.9252 355.65 53 355.65C51.0748 355.65 49.1685 356.029 47.3899 356.766C45.6113 357.503 43.9951 358.583 42.6338 359.944C41.2725 361.305 40.1927 362.921 39.456 364.7C38.7192 366.478 38.34 368.385 38.34 370.31C38.34 374.198 39.8846 377.927 42.6338 380.676C45.3831 383.425 49.112 384.97 53 384.97C56.8881 384.97 60.6169 383.425 63.3662 380.676C66.1155 377.927 67.66 374.198 67.66 370.31Z" stroke="#158FE4" stroke-width="2"/>
<path d="M323.79 426.12C323.79 420.267 321.465 414.653 317.326 410.514C313.187 406.375 307.573 404.05 301.72 404.05C298.822 404.05 295.952 404.621 293.274 405.73C290.597 406.839 288.164 408.465 286.114 410.514C284.065 412.564 282.439 414.997 281.33 417.674C280.221 420.352 279.65 423.222 279.65 426.12C279.65 429.018 280.221 431.888 281.33 434.566C282.439 437.243 284.065 439.676 286.114 441.726C288.164 443.775 290.597 445.401 293.274 446.51C295.952 447.619 298.822 448.19 301.72 448.19C307.573 448.19 313.187 445.865 317.326 441.726C321.465 437.587 323.79 431.973 323.79 426.12Z" stroke="#158FE4" stroke-width="2"/>
<path d="M113.24 492.66C113.24 492.591 113.213 492.525 113.164 492.476C113.115 492.427 113.049 492.4 112.98 492.4H103.06C102.991 492.4 102.925 492.427 102.876 492.476C102.827 492.525 102.8 492.591 102.8 492.66V542.5C102.8 542.569 102.827 542.635 102.876 542.684C102.925 542.733 102.991 542.76 103.06 542.76H112.98C113.049 542.76 113.115 542.733 113.164 542.684C113.213 542.635 113.24 542.569 113.24 542.5V492.66Z" stroke="#80B5E5" stroke-width="2"/>
<path d="M129.55 529.76L152.27 529.74C152.579 529.738 152.876 529.619 153.099 529.407C153.322 529.195 153.455 528.906 153.47 528.6C153.563 527.027 153.56 525.397 153.46 523.71C152.65 509.49 137.15 503.43 126.04 510.06C113.06 517.8 115.68 538.82 130.51 542.81C138.937 545.07 145.917 543.29 151.45 537.47C151.529 537.387 151.588 537.287 151.623 537.177C151.657 537.068 151.667 536.952 151.651 536.839C151.634 536.725 151.592 536.617 151.528 536.522C151.464 536.427 151.379 536.348 151.28 536.29L144.6 532.38C144.36 532.239 144.086 532.169 143.808 532.178C143.53 532.187 143.26 532.274 143.03 532.43C138.86 535.2 131.92 535.43 129.07 530.61C128.737 530.043 128.897 529.76 129.55 529.76Z" stroke="#80B5E5" stroke-width="2"/>
<path d="M181.88 510.65C176.62 506.09 168.13 506.34 162.66 510.89C152.27 519.55 154.23 537.19 166.75 542.54C171.57 544.61 177.46 544.12 181.6 540.41C181.679 540.341 181.774 540.294 181.877 540.274C181.979 540.254 182.086 540.262 182.184 540.297C182.283 540.331 182.371 540.391 182.439 540.471C182.506 540.551 182.552 540.647 182.57 540.75L182.82 542.22C182.887 542.587 183.103 542.77 183.47 542.77L192.64 542.74C192.807 542.74 192.967 542.674 193.085 542.555C193.204 542.437 193.27 542.277 193.27 542.11V508.72C193.27 508.656 193.257 508.592 193.233 508.532C193.208 508.473 193.172 508.419 193.126 508.374C193.081 508.328 193.027 508.292 192.968 508.267C192.908 508.243 192.844 508.23 192.78 508.23L183.5 508.24C183.147 508.24 182.907 508.403 182.78 508.73C182.58 509.237 182.493 509.773 182.52 510.34C182.54 510.933 182.327 511.037 181.88 510.65Z" stroke="#80B5E5" stroke-width="2"/>
<path d="M209.83 510L209.74 508.94C209.722 508.74 209.63 508.554 209.482 508.419C209.334 508.284 209.141 508.209 208.94 508.21L199.8 508.26C199.427 508.26 199.24 508.447 199.24 508.82L199.23 542.24C199.23 542.378 199.285 542.51 199.382 542.608C199.48 542.705 199.612 542.76 199.75 542.76L209.02 542.75C209.507 542.743 209.75 542.497 209.75 542.01C209.79 536.983 209.78 531.203 209.72 524.67C209.68 520.76 210.7 517.41 215.27 516.93C219.06 516.52 222.03 518.74 222.03 522.57C222.023 529.883 222.013 536.427 222 542.2C222 542.346 222.058 542.486 222.161 542.589C222.264 542.692 222.404 542.75 222.55 542.75L231.97 542.74C232.067 542.74 232.162 542.721 232.251 542.682C232.34 542.644 232.42 542.588 232.487 542.518C232.553 542.448 232.605 542.365 232.638 542.274C232.671 542.183 232.685 542.087 232.68 541.99C232.44 536.643 232.407 531.357 232.58 526.13C232.753 520.73 232.187 516.75 230.88 514.19C227.1 506.78 216.96 505.11 210.6 510.33C210.133 510.717 209.877 510.607 209.83 510Z" stroke="#80B5E5" stroke-width="2"/>
<path d="M78.3 520.33C81.38 516.46 87.56 516.6 90.5 520.59C90.6624 520.81 90.9001 520.962 91.1677 521.017C91.4352 521.072 91.7137 521.027 91.95 520.89L99.47 516.53C99.5686 516.473 99.6542 516.396 99.7211 516.304C99.7881 516.212 99.8348 516.107 99.8584 515.996C99.882 515.884 99.8819 515.769 99.858 515.658C99.8342 515.547 99.7871 515.442 99.72 515.35C92.21 504.83 76.55 504.53 69.27 515.26C61.74 526.36 68.37 541.24 81.17 543.39C88.65 544.65 94.76 542.177 99.5 535.97C100.053 535.25 99.9333 534.667 99.14 534.22L91.85 530.11C91.6775 530.012 91.4761 529.977 91.2807 530.012C91.0852 530.046 90.9081 530.148 90.78 530.3C88.0667 533.513 84.7933 534.323 80.96 532.73C76.12 530.71 75.39 523.98 78.3 520.33Z" stroke="#80B5E5" stroke-width="2"/>
<path d="M248.35 529.77C255.03 529.737 261.883 529.737 268.91 529.77C269.843 529.777 270.76 529.7 271.66 529.54C272 529.487 272.183 529.29 272.21 528.95C274.84 501.07 236.87 500.63 236.51 525.25C236.4 533.05 240.64 539.98 248.19 542.49C256.08 545.11 264.87 543.77 270.31 537.18C270.36 537.119 270.395 537.048 270.415 536.973C270.434 536.897 270.437 536.817 270.423 536.74C270.408 536.663 270.377 536.59 270.332 536.526C270.287 536.462 270.228 536.409 270.16 536.37L263.48 532.42C263.228 532.27 262.94 532.194 262.648 532.201C262.356 532.208 262.072 532.298 261.83 532.46C257.8 535.13 250.52 535.51 247.87 530.56C247.59 530.033 247.75 529.77 248.35 529.77Z" stroke="#80B5E5" stroke-width="2"/>
<path d="M128.94 522.01L142.84 521.97C142.872 521.97 142.902 521.957 142.925 521.935C142.947 521.912 142.96 521.882 142.96 521.85V521.78C142.958 521.098 142.776 520.423 142.423 519.794C142.071 519.165 141.554 518.594 140.904 518.114C140.254 517.634 139.483 517.254 138.634 516.996C137.786 516.738 136.877 516.607 135.96 516.61H135.78C133.93 516.617 132.158 517.169 130.853 518.146C129.548 519.123 128.817 520.445 128.82 521.82V521.89C128.82 521.922 128.833 521.952 128.855 521.975C128.878 521.997 128.908 522.01 128.94 522.01Z" stroke="#80B5E5" stroke-width="2"/>
<path d="M182.645 524.588C182.64 523.621 182.445 522.665 182.07 521.774C181.695 520.883 181.149 520.075 180.462 519.395C179.775 518.715 178.961 518.177 178.066 517.812C177.171 517.447 176.213 517.261 175.247 517.266L173.827 517.274C172.86 517.279 171.904 517.474 171.013 517.849C170.122 518.223 169.313 518.77 168.634 519.457C167.954 520.144 167.416 520.958 167.051 521.853C166.685 522.748 166.5 523.706 166.505 524.672L166.515 526.532C166.52 527.499 166.715 528.455 167.09 529.346C167.465 530.237 168.011 531.045 168.698 531.725C169.385 532.405 170.199 532.943 171.094 533.308C171.989 533.673 172.947 533.859 173.913 533.854L175.333 533.846C176.3 533.841 177.256 533.646 178.147 533.271C179.038 532.897 179.847 532.35 180.526 531.663C181.206 530.976 181.744 530.162 182.109 529.267C182.475 528.372 182.66 527.414 182.655 526.448L182.645 524.588Z" stroke="#80B5E5" stroke-width="2"/>
<path d="M247.66 521.98L261.7 522C261.729 522 261.757 521.988 261.778 521.968C261.798 521.947 261.81 521.919 261.81 521.89V521.82C261.811 521.134 261.63 520.455 261.278 519.821C260.926 519.186 260.41 518.61 259.759 518.124C259.108 517.639 258.335 517.253 257.484 516.99C256.633 516.727 255.721 516.591 254.8 516.59H254.56C252.702 516.589 250.92 517.137 249.605 518.113C248.291 519.09 247.552 520.416 247.55 521.8V521.87C247.55 521.899 247.562 521.927 247.582 521.948C247.603 521.968 247.631 521.98 247.66 521.98Z" stroke="#80B5E5" stroke-width="2"/>
<path d="M282.61 524.2C281.55 522.34 285.03 519.45 286.24 518.45C286.385 518.332 286.492 518.173 286.547 517.993C286.602 517.814 286.603 517.621 286.55 517.44C286.297 516.56 285.707 516.35 284.78 516.81C284.293 517.05 283.887 517.387 283.56 517.82C280.153 522.3 279.603 526.917 281.91 531.67C287.57 543.33 305.67 538.73 305.21 525.52C305.177 524.46 305.01 524.437 304.71 525.45C304.19 527.25 303.31 528.57 302.07 529.41C299.05 531.47 296.11 527.64 292.93 528.58C289.97 529.46 286.65 532.99 284.59 528.3C283.79 526.46 285.51 524.37 286.56 522.94C286.654 522.812 286.713 522.662 286.731 522.505C286.748 522.347 286.724 522.187 286.66 522.042C286.596 521.897 286.495 521.771 286.367 521.678C286.238 521.584 286.088 521.527 285.93 521.51C284.783 521.39 283.937 522.257 283.39 524.11C283.365 524.189 283.318 524.259 283.254 524.312C283.19 524.365 283.112 524.398 283.029 524.408C282.947 524.417 282.863 524.403 282.789 524.366C282.714 524.329 282.652 524.271 282.61 524.2Z" stroke="#80B5E5" stroke-width="2"/>
<path d="M299.69 526.77C299.13 526.983 298.857 526.793 298.87 526.2C298.91 523.493 299.993 521.843 302.12 521.25C302.285 521.204 302.437 521.118 302.561 520.999C302.685 520.881 302.779 520.734 302.833 520.571C302.887 520.408 302.901 520.234 302.872 520.065C302.844 519.896 302.774 519.736 302.67 519.6C301.617 518.247 300.327 517.277 298.8 516.69C298.581 516.606 298.344 516.585 298.116 516.629C297.887 516.673 297.677 516.781 297.51 516.94C296.24 518.12 294.78 518.88 293.41 517.15C293.184 516.864 292.872 516.658 292.521 516.562C292.17 516.467 291.798 516.487 291.46 516.62C290.127 517.147 288.887 517.907 287.74 518.9C287.622 519.001 287.54 519.137 287.506 519.288C287.471 519.44 287.487 519.598 287.55 519.74C288.037 520.84 288.87 521.477 290.05 521.65C290.189 521.67 290.318 521.733 290.418 521.832C290.519 521.931 290.586 522.06 290.61 522.2C290.857 523.753 290.817 525.227 290.49 526.62C290.467 526.714 290.471 526.813 290.502 526.905C290.533 526.997 290.59 527.078 290.665 527.139C290.741 527.2 290.832 527.238 290.929 527.249C291.025 527.26 291.123 527.243 291.21 527.2C292.957 526.353 294.583 526.29 296.09 527.01C296.483 527.197 296.893 527.33 297.32 527.41L301.02 528.12C301.202 528.156 301.391 528.137 301.565 528.066C301.738 527.995 301.89 527.875 302 527.72L302.19 527.46C302.232 527.4 302.26 527.332 302.272 527.26C302.285 527.188 302.28 527.114 302.26 527.045C302.24 526.975 302.204 526.912 302.155 526.859C302.107 526.806 302.047 526.765 301.98 526.74C301.227 526.453 300.463 526.463 299.69 526.77Z" stroke="#80B5E5" stroke-width="2"/>
<path d="M288.708 527.452C288.692 527.158 288.52 526.884 288.228 526.691C287.936 526.498 287.549 526.401 287.152 526.422C286.755 526.442 286.38 526.579 286.11 526.802C285.84 527.024 285.697 527.315 285.712 527.609C285.727 527.903 285.9 528.176 286.192 528.369C286.484 528.563 286.871 528.659 287.268 528.639C287.665 528.618 288.04 528.481 288.31 528.258C288.58 528.036 288.723 527.745 288.708 527.452Z" stroke="#80B5E5" stroke-width="2"/>
<path d="M295.291 532.351C295.365 532.042 295.289 531.71 295.08 531.429C294.872 531.148 294.547 530.941 294.178 530.853C293.995 530.809 293.807 530.796 293.625 530.815C293.442 530.833 293.268 530.883 293.113 530.96C292.958 531.038 292.825 531.142 292.721 531.267C292.618 531.392 292.545 531.535 292.509 531.689C292.435 531.998 292.511 532.33 292.72 532.611C292.928 532.892 293.253 533.099 293.622 533.187C293.805 533.231 293.993 533.244 294.175 533.225C294.358 533.207 294.532 533.157 294.687 533.08C294.842 533.002 294.975 532.898 295.079 532.773C295.182 532.648 295.255 532.505 295.291 532.351Z" stroke="#80B5E5" stroke-width="2"/>
<path d="M298.969 532.687C298.992 532.584 298.929 532.465 298.792 532.357C298.655 532.249 298.456 532.16 298.239 532.11C298.132 532.085 298.023 532.071 297.919 532.068C297.815 532.065 297.718 532.073 297.634 532.092C297.55 532.11 297.48 532.14 297.428 532.178C297.376 532.215 297.343 532.261 297.331 532.312C297.308 532.416 297.371 532.535 297.508 532.643C297.645 532.751 297.844 532.84 298.061 532.89C298.168 532.915 298.277 532.929 298.381 532.932C298.485 532.935 298.582 532.927 298.666 532.908C298.75 532.89 298.82 532.86 298.872 532.822C298.924 532.785 298.957 532.739 298.969 532.687Z" stroke="#80B5E5" stroke-width="2"/>
<path d="M297.728 524.718C297.715 524.509 297.596 524.315 297.396 524.178C297.196 524.042 296.932 523.975 296.662 523.992C296.528 524 296.397 524.028 296.276 524.075C296.155 524.123 296.046 524.187 295.956 524.266C295.866 524.345 295.796 524.437 295.751 524.536C295.706 524.635 295.686 524.739 295.692 524.842C295.705 525.051 295.824 525.245 296.024 525.382C296.224 525.518 296.488 525.585 296.758 525.568C296.892 525.56 297.023 525.532 297.144 525.485C297.265 525.438 297.374 525.373 297.464 525.294C297.554 525.215 297.624 525.123 297.669 525.024C297.714 524.925 297.734 524.821 297.728 524.718Z" stroke="#80B5E5" stroke-width="2"/>
<path d="M0 0H378V319.5L377.67 320.32C377.53 320.667 377.31 320.723 377.01 320.49C358.82 306.37 335.72 308.18 315.66 316.67C303.513 321.81 291.843 327.88 280.65 334.88C267.497 343.107 254.487 351.177 241.62 359.09C232.473 364.723 223.587 369.56 214.96 373.6C197.54 381.78 179.22 387.45 160.29 386.15C140.58 384.8 121.34 374.29 108.03 360.09C89.71 340.55 88.78 310.58 96.08 286.18C101.23 268.97 109.94 253.75 121.68 240.33C129.39 231.51 137.4 222.59 143.4 212.61C150.83 200.27 153.59 183.62 146.65 170.74C140.65 159.6 128.16 154.79 115.85 157.26C101.96 160.06 91.03 170.61 84.31 182.94C76.87 196.573 72.0933 211.683 69.98 228.27C69.23 234.14 66.95 238.5 61.14 240.98C56.9067 242.78 52.8767 242.55 49.05 240.29C42.38 236.34 40.63 225.89 41.36 218.39C41.7467 214.41 42.4867 210.54 43.58 206.78C56.43 162.64 91.47 133.06 125.12 103.71C135.16 94.95 144.8 83.57 148.27 70.58C152.14 56.09 148.35 41.44 134.6 34.41C122.73 28.36 108.1 34.13 98.04 41C84.03 50.57 71.26 65.08 60.85 79.13C48.22 96.17 36.22 115.58 25.98 135.13C12.89 160.13 5.38 187.22 1.12 215.67C0.96 216.75 1.22 218.01 0.91 219.08C0.683333 219.86 0.526667 219.847 0.44 219.04L0 215V210.91V202.88V0ZM238.41 104.44C238.41 101.833 237.374 99.3326 235.531 97.4891C233.687 95.6457 231.187 94.61 228.58 94.61C227.289 94.61 226.011 94.8643 224.818 95.3583C223.626 95.8523 222.542 96.5763 221.629 97.4891C220.716 98.4019 219.992 99.4856 219.498 100.678C219.004 101.871 218.75 103.149 218.75 104.44C218.75 105.731 219.004 107.009 219.498 108.202C219.992 109.394 220.716 110.478 221.629 111.391C222.542 112.304 223.626 113.028 224.818 113.522C226.011 114.016 227.289 114.27 228.58 114.27C231.187 114.27 233.687 113.234 235.531 111.391C237.374 109.547 238.41 107.047 238.41 104.44ZM323.78 236.13C323.78 232.046 322.158 228.129 319.269 225.241C316.381 222.352 312.464 220.73 308.38 220.73C304.296 220.73 300.379 222.352 297.491 225.241C294.603 228.129 292.98 232.046 292.98 236.13C292.98 238.152 293.378 240.155 294.152 242.023C294.926 243.892 296.061 245.589 297.491 247.019C298.921 248.449 300.618 249.584 302.487 250.358C304.355 251.132 306.358 251.53 308.38 251.53C310.402 251.53 312.405 251.132 314.273 250.358C316.142 249.584 317.839 248.449 319.269 247.019C320.699 245.589 321.834 243.892 322.608 242.023C323.382 240.155 323.78 238.152 323.78 236.13ZM180.62 323.23C180.62 319.754 179.935 316.312 178.605 313.1C177.275 309.889 175.325 306.971 172.867 304.513C170.409 302.055 167.491 300.105 164.28 298.775C161.068 297.445 157.626 296.76 154.15 296.76C150.674 296.76 147.232 297.445 144.02 298.775C140.809 300.105 137.891 302.055 135.433 304.513C132.975 306.971 131.025 309.889 129.695 313.1C128.365 316.312 127.68 319.754 127.68 323.23C127.68 330.25 130.469 336.983 135.433 341.947C140.397 346.911 147.13 349.7 154.15 349.7C161.17 349.7 167.903 346.911 172.867 341.947C177.831 336.983 180.62 330.25 180.62 323.23Z" fill="#29B3FE"/>
<path d="M378 319.5V660H0V215L0.44 219.04C0.526667 219.847 0.683333 219.86 0.91 219.08C1.22 218.01 0.96 216.75 1.12 215.67C5.38 187.22 12.89 160.13 25.98 135.13C36.22 115.58 48.22 96.17 60.85 79.13C71.26 65.08 84.03 50.57 98.04 41C108.1 34.13 122.73 28.36 134.6 34.41C148.35 41.44 152.14 56.09 148.27 70.58C144.8 83.57 135.16 94.95 125.12 103.71C91.47 133.06 56.43 162.64 43.58 206.78C42.4867 210.54 41.7467 214.41 41.36 218.39C40.63 225.89 42.38 236.34 49.05 240.29C52.8767 242.55 56.9067 242.78 61.14 240.98C66.95 238.5 69.23 234.14 69.98 228.27C72.0933 211.683 76.87 196.573 84.31 182.94C91.03 170.61 101.96 160.06 115.85 157.26C128.16 154.79 140.65 159.6 146.65 170.74C153.59 183.62 150.83 200.27 143.4 212.61C137.4 222.59 129.39 231.51 121.68 240.33C109.94 253.75 101.23 268.97 96.08 286.18C88.78 310.58 89.71 340.55 108.03 360.09C121.34 374.29 140.58 384.8 160.29 386.15C179.22 387.45 197.54 381.78 214.96 373.6C223.587 369.56 232.473 364.723 241.62 359.09C254.487 351.177 267.497 343.107 280.65 334.88C291.843 327.88 303.513 321.81 315.66 316.67C335.72 308.18 358.82 306.37 377.01 320.49C377.31 320.723 377.53 320.667 377.67 320.32L378 319.5ZM67.66 370.31C67.66 368.385 67.2808 366.478 66.5441 364.7C65.8073 362.921 64.7275 361.305 63.3662 359.944C62.0049 358.583 60.3888 357.503 58.6101 356.766C56.8315 356.029 54.9252 355.65 53 355.65C51.0748 355.65 49.1685 356.029 47.3899 356.766C45.6112 357.503 43.9951 358.583 42.6338 359.944C41.2725 361.305 40.1927 362.921 39.4559 364.7C38.7192 366.478 38.34 368.385 38.34 370.31C38.34 374.198 39.8845 377.927 42.6338 380.676C45.3831 383.425 49.1119 384.97 53 384.97C56.8881 384.97 60.6169 383.425 63.3662 380.676C66.1155 377.927 67.66 374.198 67.66 370.31ZM323.79 426.12C323.79 420.267 321.465 414.653 317.326 410.514C313.187 406.375 307.573 404.05 301.72 404.05C298.822 404.05 295.952 404.621 293.274 405.73C290.597 406.839 288.164 408.465 286.114 410.514C284.065 412.564 282.439 414.997 281.33 417.674C280.221 420.352 279.65 423.222 279.65 426.12C279.65 429.018 280.221 431.888 281.33 434.566C282.439 437.243 284.065 439.676 286.114 441.726C288.164 443.775 290.597 445.401 293.274 446.51C295.952 447.619 298.822 448.19 301.72 448.19C307.573 448.19 313.187 445.865 317.326 441.726C321.465 437.587 323.79 431.973 323.79 426.12ZM113.24 492.66C113.24 492.591 113.213 492.525 113.164 492.476C113.115 492.427 113.049 492.4 112.98 492.4H103.06C102.991 492.4 102.925 492.427 102.876 492.476C102.827 492.525 102.8 492.591 102.8 492.66V542.5C102.8 542.569 102.827 542.635 102.876 542.684C102.925 542.733 102.991 542.76 103.06 542.76H112.98C113.049 542.76 113.115 542.733 113.164 542.684C113.213 542.635 113.24 542.569 113.24 542.5V492.66ZM129.55 529.76L152.27 529.74C152.579 529.738 152.876 529.619 153.099 529.407C153.322 529.195 153.455 528.906 153.47 528.6C153.563 527.027 153.56 525.397 153.46 523.71C152.65 509.49 137.15 503.43 126.04 510.06C113.06 517.8 115.68 538.82 130.51 542.81C138.937 545.07 145.917 543.29 151.45 537.47C151.529 537.387 151.588 537.287 151.623 537.177C151.657 537.068 151.667 536.952 151.651 536.839C151.634 536.725 151.592 536.617 151.528 536.522C151.464 536.427 151.379 536.348 151.28 536.29L144.6 532.38C144.36 532.239 144.086 532.169 143.808 532.178C143.53 532.187 143.26 532.274 143.03 532.43C138.86 535.2 131.92 535.43 129.07 530.61C128.737 530.043 128.897 529.76 129.55 529.76ZM181.88 510.65C176.62 506.09 168.13 506.34 162.66 510.89C152.27 519.55 154.23 537.19 166.75 542.54C171.57 544.61 177.46 544.12 181.6 540.41C181.679 540.341 181.774 540.294 181.877 540.274C181.979 540.254 182.086 540.262 182.184 540.297C182.283 540.331 182.371 540.391 182.439 540.471C182.506 540.551 182.552 540.647 182.57 540.75L182.82 542.22C182.887 542.587 183.103 542.77 183.47 542.77L192.64 542.74C192.807 542.74 192.967 542.674 193.085 542.555C193.204 542.437 193.27 542.277 193.27 542.11V508.72C193.27 508.656 193.257 508.592 193.233 508.532C193.208 508.473 193.172 508.419 193.126 508.374C193.081 508.328 193.027 508.292 192.968 508.267C192.908 508.243 192.844 508.23 192.78 508.23L183.5 508.24C183.147 508.24 182.907 508.403 182.78 508.73C182.58 509.237 182.493 509.773 182.52 510.34C182.54 510.933 182.327 511.037 181.88 510.65ZM209.83 510L209.74 508.94C209.722 508.74 209.63 508.554 209.482 508.419C209.334 508.284 209.141 508.209 208.94 508.21L199.8 508.26C199.427 508.26 199.24 508.447 199.24 508.82L199.23 542.24C199.23 542.378 199.285 542.51 199.382 542.608C199.48 542.705 199.612 542.76 199.75 542.76L209.02 542.75C209.507 542.743 209.75 542.497 209.75 542.01C209.79 536.983 209.78 531.203 209.72 524.67C209.68 520.76 210.7 517.41 215.27 516.93C219.06 516.52 222.03 518.74 222.03 522.57C222.023 529.883 222.013 536.427 222 542.2C222 542.346 222.058 542.486 222.161 542.589C222.264 542.692 222.404 542.75 222.55 542.75L231.97 542.74C232.067 542.74 232.162 542.721 232.251 542.682C232.34 542.644 232.42 542.588 232.487 542.518C232.553 542.448 232.605 542.365 232.638 542.274C232.671 542.183 232.685 542.087 232.68 541.99C232.44 536.643 232.407 531.357 232.58 526.13C232.753 520.73 232.187 516.75 230.88 514.19C227.1 506.78 216.96 505.11 210.6 510.33C210.133 510.717 209.877 510.607 209.83 510ZM78.3 520.33C81.38 516.46 87.56 516.6 90.5 520.59C90.6624 520.81 90.9001 520.962 91.1677 521.017C91.4352 521.072 91.7137 521.027 91.95 520.89L99.47 516.53C99.5686 516.473 99.6542 516.396 99.7211 516.304C99.7881 516.212 99.8348 516.107 99.8584 515.996C99.882 515.884 99.8819 515.769 99.858 515.658C99.8342 515.547 99.7871 515.442 99.72 515.35C92.21 504.83 76.55 504.53 69.27 515.26C61.74 526.36 68.37 541.24 81.17 543.39C88.65 544.65 94.76 542.177 99.5 535.97C100.053 535.25 99.9333 534.667 99.14 534.22L91.85 530.11C91.6775 530.012 91.4761 529.977 91.2807 530.012C91.0852 530.046 90.9081 530.148 90.78 530.3C88.0667 533.513 84.7933 534.323 80.96 532.73C76.12 530.71 75.39 523.98 78.3 520.33ZM248.35 529.77C255.03 529.737 261.883 529.737 268.91 529.77C269.843 529.777 270.76 529.7 271.66 529.54C272 529.487 272.183 529.29 272.21 528.95C274.84 501.07 236.87 500.63 236.51 525.25C236.4 533.05 240.64 539.98 248.19 542.49C256.08 545.11 264.87 543.77 270.31 537.18C270.36 537.119 270.395 537.048 270.415 536.973C270.434 536.897 270.437 536.817 270.423 536.74C270.408 536.663 270.377 536.59 270.332 536.526C270.287 536.462 270.228 536.409 270.16 536.37L263.48 532.42C263.228 532.27 262.94 532.194 262.648 532.201C262.356 532.208 262.072 532.298 261.83 532.46C257.8 535.13 250.52 535.51 247.87 530.56C247.59 530.033 247.75 529.77 248.35 529.77ZM311.31 525.53C311.31 520.687 309.386 516.043 305.962 512.618C302.537 509.194 297.893 507.27 293.05 507.27C288.207 507.27 283.563 509.194 280.138 512.618C276.714 516.043 274.79 520.687 274.79 525.53C274.79 530.373 276.714 535.017 280.138 538.442C283.563 541.866 288.207 543.79 293.05 543.79C297.893 543.79 302.537 541.866 305.962 538.442C309.386 535.017 311.31 530.373 311.31 525.53Z" fill="#006ACA"/>
<path d="M228.58 114.27C234.009 114.27 238.41 109.869 238.41 104.44C238.41 99.011 234.009 94.61 228.58 94.61C223.151 94.61 218.75 99.011 218.75 104.44C218.75 109.869 223.151 114.27 228.58 114.27Z" fill="#006ACA"/>
<path d="M308.38 251.53C316.885 251.53 323.78 244.635 323.78 236.13C323.78 227.625 316.885 220.73 308.38 220.73C299.875 220.73 292.98 227.625 292.98 236.13C292.98 244.635 299.875 251.53 308.38 251.53Z" fill="#006ACA"/>
<path d="M154.15 349.7C168.769 349.7 180.62 337.849 180.62 323.23C180.62 308.611 168.769 296.76 154.15 296.76C139.531 296.76 127.68 308.611 127.68 323.23C127.68 337.849 139.531 349.7 154.15 349.7Z" fill="#006ACA"/>
<path d="M53 384.97C61.0965 384.97 67.66 378.406 67.66 370.31C67.66 362.214 61.0965 355.65 53 355.65C44.9035 355.65 38.34 362.214 38.34 370.31C38.34 378.406 44.9035 384.97 53 384.97Z" fill="#29B3FE"/>
<path d="M301.72 448.19C313.909 448.19 323.79 438.309 323.79 426.12C323.79 413.931 313.909 404.05 301.72 404.05C289.531 404.05 279.65 413.931 279.65 426.12C279.65 438.309 289.531 448.19 301.72 448.19Z" fill="#29B3FE"/>
<path d="M247.66 521.98C247.631 521.98 247.603 521.968 247.582 521.948C247.562 521.927 247.55 521.899 247.55 521.87V521.8C247.552 520.416 248.291 519.09 249.605 518.113C250.92 517.137 252.702 516.589 254.56 516.59H254.8C255.721 516.591 256.633 516.727 257.484 516.99C258.335 517.253 259.108 517.639 259.759 518.124C260.41 518.61 260.926 519.186 261.278 519.821C261.63 520.455 261.811 521.134 261.81 521.82V521.89C261.81 521.919 261.798 521.947 261.778 521.968C261.757 521.988 261.729 522 261.7 522L247.66 521.98Z" fill="#006ACA"/>
<path d="M282.61 524.2C282.652 524.271 282.714 524.329 282.789 524.366C282.863 524.403 282.947 524.417 283.029 524.408C283.112 524.398 283.19 524.365 283.254 524.312C283.318 524.259 283.365 524.189 283.39 524.11C283.937 522.257 284.783 521.39 285.93 521.51C286.088 521.527 286.238 521.584 286.367 521.678C286.495 521.771 286.596 521.897 286.66 522.042C286.724 522.187 286.748 522.347 286.731 522.505C286.713 522.662 286.654 522.812 286.56 522.94C285.51 524.37 283.79 526.46 284.59 528.3C286.65 532.99 289.97 529.46 292.93 528.58C296.11 527.64 299.05 531.47 302.07 529.41C303.31 528.57 304.19 527.25 304.71 525.45C305.01 524.437 305.177 524.46 305.21 525.52C305.67 538.73 287.57 543.33 281.91 531.67C279.603 526.917 280.153 522.3 283.56 517.82C283.887 517.387 284.293 517.05 284.78 516.81C285.707 516.35 286.297 516.56 286.55 517.44C286.603 517.621 286.602 517.814 286.547 517.993C286.492 518.173 286.385 518.332 286.24 518.45C285.03 519.45 281.55 522.34 282.61 524.2ZM295.291 532.351C295.365 532.042 295.289 531.71 295.08 531.429C294.872 531.148 294.547 530.941 294.178 530.853C293.995 530.809 293.807 530.796 293.625 530.815C293.442 530.833 293.268 530.883 293.113 530.96C292.958 531.038 292.825 531.142 292.721 531.267C292.618 531.392 292.545 531.535 292.509 531.689C292.435 531.998 292.511 532.33 292.72 532.611C292.928 532.892 293.253 533.099 293.622 533.187C293.805 533.231 293.993 533.244 294.175 533.225C294.358 533.207 294.532 533.157 294.687 533.08C294.842 533.002 294.975 532.898 295.079 532.773C295.182 532.648 295.255 532.505 295.291 532.351ZM298.969 532.687C298.992 532.584 298.929 532.465 298.792 532.357C298.655 532.249 298.456 532.16 298.239 532.11C298.132 532.085 298.023 532.071 297.919 532.068C297.815 532.065 297.718 532.073 297.634 532.092C297.55 532.11 297.48 532.14 297.428 532.178C297.376 532.215 297.343 532.261 297.331 532.312C297.308 532.416 297.371 532.535 297.508 532.643C297.645 532.751 297.844 532.84 298.061 532.89C298.168 532.915 298.277 532.929 298.381 532.932C298.485 532.935 298.582 532.927 298.666 532.908C298.75 532.89 298.82 532.86 298.872 532.822C298.924 532.785 298.957 532.739 298.969 532.687Z" fill="#006ACA"/>
<path d="M299.69 526.77C300.463 526.463 301.227 526.453 301.98 526.74C302.047 526.765 302.107 526.806 302.155 526.859C302.204 526.912 302.24 526.975 302.26 527.045C302.28 527.114 302.285 527.188 302.272 527.26C302.26 527.332 302.232 527.4 302.19 527.46L302 527.72C301.89 527.875 301.738 527.995 301.565 528.066C301.391 528.137 301.202 528.156 301.02 528.12L297.32 527.41C296.893 527.33 296.483 527.197 296.09 527.01C294.583 526.29 292.957 526.353 291.21 527.2C291.123 527.243 291.025 527.26 290.929 527.249C290.832 527.238 290.741 527.2 290.665 527.139C290.59 527.078 290.533 526.997 290.502 526.905C290.471 526.813 290.467 526.714 290.49 526.62C290.817 525.227 290.857 523.753 290.61 522.2C290.586 522.06 290.519 521.931 290.418 521.832C290.318 521.733 290.189 521.67 290.05 521.65C288.87 521.477 288.037 520.84 287.55 519.74C287.487 519.598 287.471 519.44 287.506 519.288C287.54 519.137 287.622 519.001 287.74 518.9C288.887 517.907 290.127 517.147 291.46 516.62C291.798 516.487 292.17 516.467 292.521 516.562C292.872 516.658 293.184 516.864 293.41 517.15C294.78 518.88 296.24 518.12 297.51 516.94C297.677 516.781 297.887 516.673 298.116 516.629C298.344 516.585 298.581 516.606 298.8 516.69C300.327 517.277 301.617 518.247 302.67 519.6C302.774 519.736 302.844 519.896 302.872 520.065C302.901 520.234 302.887 520.408 302.833 520.571C302.779 520.734 302.685 520.881 302.561 520.999C302.437 521.118 302.285 521.204 302.12 521.25C299.993 521.843 298.91 523.493 298.87 526.2C298.857 526.793 299.13 526.983 299.69 526.77ZM297.728 524.718C297.715 524.509 297.596 524.315 297.396 524.178C297.196 524.042 296.932 523.975 296.662 523.992C296.528 524 296.397 524.028 296.276 524.075C296.155 524.122 296.046 524.187 295.956 524.266C295.866 524.345 295.796 524.437 295.751 524.536C295.706 524.635 295.686 524.739 295.692 524.842C295.705 525.051 295.824 525.245 296.024 525.382C296.224 525.518 296.488 525.585 296.758 525.568C296.892 525.56 297.023 525.532 297.144 525.485C297.265 525.437 297.374 525.373 297.464 525.294C297.554 525.215 297.624 525.123 297.669 525.024C297.714 524.925 297.734 524.821 297.728 524.718Z" fill="#006ACA"/>
<path d="M175.247 517.266L173.827 517.274C169.762 517.295 166.484 520.608 166.505 524.672L166.515 526.532C166.536 530.597 169.849 533.875 173.913 533.854L175.333 533.846C179.398 533.825 182.676 530.513 182.655 526.448L182.645 524.588C182.624 520.523 179.311 517.245 175.247 517.266Z" fill="#006ACA"/>
<path d="M296.758 525.569C297.321 525.534 297.755 525.153 297.728 524.718C297.701 524.282 297.224 523.957 296.662 523.992C296.099 524.026 295.665 524.407 295.692 524.842C295.719 525.278 296.196 525.603 296.758 525.569Z" fill="white"/>
<path d="M287.268 528.638C288.095 528.595 288.74 528.064 288.708 527.451C288.676 526.839 287.979 526.378 287.152 526.421C286.325 526.465 285.68 526.996 285.712 527.608C285.744 528.221 286.441 528.682 287.268 528.638Z" fill="#006ACA"/>
<path d="M293.622 533.187C294.39 533.37 295.137 532.996 295.291 532.351C295.445 531.707 294.946 531.036 294.178 530.853C293.41 530.67 292.663 531.044 292.509 531.689C292.355 532.333 292.854 533.004 293.622 533.187Z" fill="white"/>
<path d="M298.061 532.89C298.513 532.993 298.919 532.903 298.969 532.688C299.018 532.472 298.692 532.214 298.239 532.11C297.787 532.007 297.381 532.097 297.331 532.312C297.282 532.528 297.608 532.786 298.061 532.89Z" fill="white"/>
<rect x="40" y="477" width="297" height="90" fill="#006ACA"/>
<g clip-path="url(#clip1_8_52)">
<path d="M123.326 551H115.64C115.529 551 115.439 551.09 115.439 551.201V589.819C115.439 589.931 115.529 590.021 115.64 590.021H123.326C123.438 590.021 123.528 589.931 123.528 589.819V551.201C123.528 551.09 123.438 551 123.326 551Z" fill="white"/>
<path d="M135.794 580.607C138.002 584.341 143.38 584.163 146.611 582.017C146.789 581.896 146.998 581.828 147.213 581.822C147.429 581.815 147.642 581.869 147.827 581.978L153.003 585.008C153.08 585.052 153.146 585.114 153.195 585.188C153.245 585.261 153.278 585.345 153.29 585.433C153.303 585.521 153.296 585.611 153.269 585.695C153.242 585.78 153.196 585.858 153.135 585.922C148.847 590.432 143.439 591.811 136.91 590.06C125.419 586.968 123.389 570.681 133.446 564.684C142.055 559.547 154.065 564.242 154.692 575.26C154.77 576.567 154.772 577.83 154.7 579.049C154.688 579.287 154.585 579.51 154.412 579.674C154.239 579.839 154.01 579.931 153.77 579.933L136.166 579.948C135.66 579.948 135.536 580.168 135.794 580.607ZM135.693 573.943L146.464 573.912C146.488 573.912 146.512 573.902 146.529 573.885C146.547 573.868 146.557 573.844 146.557 573.819V573.765C146.555 573.237 146.414 572.714 146.141 572.226C145.867 571.739 145.467 571.296 144.964 570.924C144.46 570.552 143.862 570.258 143.205 570.058C142.548 569.858 141.843 569.756 141.133 569.759H140.993C139.56 569.764 138.187 570.193 137.176 570.949C136.164 571.706 135.598 572.73 135.6 573.796V573.85C135.6 573.875 135.61 573.899 135.628 573.916C135.645 573.933 135.669 573.943 135.693 573.943Z" fill="white"/>
<path d="M177.209 564.901C177.188 564.462 177.256 564.046 177.41 563.653C177.509 563.4 177.694 563.274 177.968 563.274L185.159 563.266C185.209 563.266 185.258 563.276 185.304 563.295C185.35 563.314 185.392 563.342 185.427 563.377C185.462 563.412 185.49 563.454 185.509 563.5C185.529 563.546 185.538 563.596 185.538 563.646V589.517C185.538 589.647 185.487 589.771 185.396 589.862C185.304 589.954 185.18 590.005 185.05 590.005L177.945 590.029C177.661 590.029 177.493 589.887 177.441 589.603L177.248 588.464C177.234 588.384 177.198 588.309 177.146 588.247C177.093 588.186 177.025 588.139 176.949 588.112C176.872 588.085 176.79 588.079 176.711 588.095C176.631 588.11 176.557 588.147 176.496 588.2C173.288 591.075 168.724 591.454 164.99 589.85C155.289 585.705 153.77 572.037 161.821 565.327C166.059 561.801 172.637 561.608 176.713 565.141C177.059 565.441 177.224 565.361 177.209 564.901ZM177.306 575.94C177.302 575.192 177.15 574.451 176.86 573.76C176.57 573.07 176.147 572.444 175.614 571.917C175.082 571.39 174.451 570.973 173.758 570.69C173.064 570.407 172.322 570.264 171.573 570.268L170.473 570.273C169.724 570.277 168.983 570.429 168.293 570.719C167.602 571.009 166.976 571.432 166.449 571.965C165.923 572.497 165.506 573.128 165.223 573.821C164.94 574.515 164.796 575.257 164.8 576.006L164.808 577.447C164.812 578.196 164.963 578.937 165.253 579.627C165.543 580.317 165.967 580.944 166.499 581.471C167.031 581.998 167.662 582.414 168.356 582.697C169.049 582.98 169.791 583.124 170.54 583.12L171.641 583.114C172.389 583.11 173.13 582.959 173.821 582.669C174.511 582.378 175.137 581.955 175.664 581.423C176.191 580.89 176.608 580.26 176.891 579.566C177.174 578.873 177.317 578.13 177.313 577.382L177.306 575.94Z" fill="white"/>
<path d="M198.967 564.893C203.895 560.848 211.751 562.142 214.68 567.884C215.693 569.868 216.132 572.951 215.998 577.136C215.863 581.185 215.889 585.282 216.075 589.424C216.079 589.499 216.068 589.574 216.042 589.644C216.017 589.715 215.977 589.779 215.925 589.834C215.874 589.888 215.812 589.931 215.743 589.961C215.674 589.99 215.6 590.006 215.525 590.006L208.226 590.013C208.113 590.013 208.004 589.968 207.925 589.888C207.845 589.809 207.8 589.7 207.8 589.587C207.81 585.114 207.818 580.044 207.823 574.377C207.823 571.409 205.522 569.689 202.585 570.007C199.044 570.379 198.254 572.975 198.285 576.004C198.331 581.067 198.339 585.545 198.308 589.44C198.308 589.817 198.119 590.008 197.742 590.013L190.56 590.021C190.453 590.021 190.35 589.979 190.275 589.903C190.199 589.827 190.157 589.725 190.157 589.618L190.164 563.723C190.164 563.434 190.309 563.289 190.598 563.289L197.68 563.25C197.836 563.25 197.986 563.308 198.101 563.412C198.215 563.517 198.287 563.661 198.3 563.816L198.37 564.637C198.406 565.107 198.605 565.193 198.967 564.893Z" fill="white"/>
<path d="M105.909 572.842C103.631 569.751 98.8421 569.642 96.4556 572.641C94.2009 575.469 94.7665 580.684 98.5167 582.249C101.487 583.483 104.023 582.856 106.126 580.366C106.225 580.248 106.362 580.169 106.513 580.142C106.665 580.116 106.821 580.143 106.955 580.219L112.603 583.403C113.218 583.749 113.311 584.201 112.882 584.759C109.209 589.568 104.475 591.485 98.6794 590.508C88.7615 588.843 83.6244 577.313 89.4589 568.712C95.0997 560.398 107.234 560.631 113.053 568.782C113.105 568.853 113.141 568.935 113.16 569.021C113.178 569.107 113.178 569.196 113.16 569.282C113.142 569.369 113.105 569.45 113.053 569.522C113.002 569.593 112.935 569.653 112.859 569.697L107.032 573.075C106.849 573.181 106.633 573.216 106.426 573.173C106.219 573.13 106.034 573.013 105.909 572.842Z" fill="white"/>
<path d="M227.845 580.568C229.898 584.403 235.539 584.109 238.661 582.04C238.849 581.914 239.069 581.845 239.295 581.839C239.521 581.834 239.745 581.893 239.94 582.009L245.116 585.069C245.169 585.1 245.214 585.141 245.249 585.19C245.284 585.24 245.308 585.297 245.319 585.356C245.33 585.416 245.328 585.477 245.313 585.536C245.298 585.595 245.27 585.65 245.232 585.697C241.017 590.803 234.206 591.841 228.093 589.811C222.243 587.867 218.957 582.497 219.043 576.453C219.322 557.377 248.742 557.718 246.704 579.32C246.684 579.584 246.542 579.736 246.278 579.777C245.581 579.901 244.87 579.961 244.147 579.955C238.703 579.93 233.393 579.93 228.217 579.955C227.752 579.955 227.628 580.159 227.845 580.568ZM227.682 573.919L238.561 573.935C238.583 573.935 238.605 573.926 238.621 573.91C238.637 573.894 238.646 573.872 238.646 573.85V573.796C238.647 573.264 238.507 572.738 238.234 572.246C237.961 571.755 237.561 571.308 237.057 570.932C236.552 570.556 235.953 570.257 235.294 570.053C234.635 569.849 233.928 569.744 233.214 569.743H233.028C231.589 569.742 230.208 570.167 229.189 570.924C228.171 571.681 227.598 572.708 227.597 573.78V573.834C227.597 573.857 227.606 573.879 227.622 573.895C227.638 573.91 227.659 573.919 227.682 573.919Z" fill="white"/>
<path d="M277 576.671C277 580.423 275.509 584.022 272.856 586.675C270.203 589.328 266.604 590.819 262.852 590.819C259.099 590.819 255.5 589.328 252.847 586.675C250.194 584.022 248.703 580.423 248.703 576.671C248.703 572.918 250.194 569.319 252.847 566.666C255.5 564.013 259.099 562.522 262.852 562.522C266.604 562.522 270.203 564.013 272.856 566.666C275.509 569.319 277 572.918 277 576.671ZM254.762 575.64C253.941 574.199 256.637 571.96 257.575 571.185C257.687 571.093 257.77 570.97 257.813 570.831C257.856 570.692 257.856 570.543 257.815 570.402C257.619 569.72 257.162 569.558 256.444 569.914C256.067 570.1 255.752 570.361 255.498 570.697C252.859 574.168 252.433 577.745 254.22 581.428C258.606 590.463 272.63 586.898 272.274 576.663C272.248 575.841 272.119 575.823 271.886 576.609C271.483 578.003 270.801 579.026 269.841 579.677C267.501 581.273 265.223 578.305 262.759 579.034C260.465 579.716 257.893 582.451 256.297 578.817C255.677 577.391 257.009 575.772 257.823 574.664C257.896 574.565 257.942 574.448 257.955 574.326C257.969 574.204 257.95 574.081 257.9 573.968C257.851 573.856 257.772 573.758 257.673 573.686C257.574 573.613 257.457 573.569 257.335 573.556C256.446 573.463 255.79 574.134 255.367 575.57C255.347 575.632 255.311 575.686 255.261 575.727C255.211 575.768 255.151 575.794 255.087 575.801C255.023 575.808 254.959 575.797 254.901 575.769C254.843 575.74 254.795 575.695 254.762 575.64ZM267.997 577.631C267.563 577.797 267.351 577.649 267.361 577.19C267.392 575.092 268.232 573.814 269.879 573.354C270.007 573.318 270.125 573.252 270.221 573.16C270.317 573.068 270.39 572.954 270.432 572.828C270.474 572.702 270.484 572.567 270.462 572.436C270.44 572.305 270.386 572.181 270.306 572.076C269.489 571.027 268.49 570.276 267.307 569.821C267.137 569.756 266.954 569.739 266.777 569.774C266.6 569.808 266.437 569.892 266.307 570.015C265.323 570.929 264.192 571.518 263.131 570.177C262.955 569.956 262.714 569.796 262.442 569.722C262.169 569.648 261.881 569.664 261.62 569.767C260.587 570.175 259.626 570.764 258.737 571.533C258.646 571.612 258.582 571.717 258.556 571.834C258.529 571.952 258.541 572.074 258.59 572.184C258.967 573.037 259.613 573.53 260.527 573.664C260.635 573.679 260.735 573.729 260.813 573.805C260.891 573.882 260.943 573.982 260.961 574.09C261.152 575.294 261.121 576.435 260.868 577.515C260.85 577.588 260.853 577.665 260.877 577.736C260.901 577.807 260.945 577.87 261.004 577.918C261.062 577.965 261.133 577.994 261.208 578.003C261.283 578.011 261.358 577.998 261.426 577.965C262.779 577.308 264.04 577.259 265.207 577.817C265.512 577.962 265.83 578.065 266.16 578.127L269.027 578.677C269.168 578.705 269.314 578.691 269.449 578.636C269.584 578.581 269.701 578.488 269.786 578.367L269.934 578.166C269.966 578.12 269.988 578.067 269.997 578.011C270.007 577.955 270.004 577.898 269.988 577.844C269.972 577.791 269.944 577.741 269.907 577.7C269.869 577.659 269.823 577.628 269.771 577.608C269.187 577.386 268.596 577.394 267.997 577.631ZM259.487 578.159C259.475 577.932 259.342 577.72 259.115 577.57C258.889 577.42 258.589 577.345 258.282 577.361C257.974 577.377 257.683 577.483 257.474 577.656C257.265 577.828 257.154 578.053 257.166 578.281C257.178 578.509 257.312 578.721 257.538 578.871C257.764 579.02 258.064 579.095 258.372 579.079C258.679 579.063 258.97 578.957 259.179 578.785C259.388 578.612 259.499 578.387 259.487 578.159Z" fill="white"/>
</g>
<g clip-path="url(#clip2_8_52)">
<path d="M201.188 552.285C200.758 555.652 199.178 558.732 197.492 561.698C197.436 561.799 197.379 561.899 197.32 562H179.799C179.445 561.908 179.095 561.807 178.747 561.698C176.768 561.096 174.899 560.177 173.214 558.977C166.768 554.334 164.288 545.56 165.408 537.698C166.105 532.814 168.249 527.827 172.424 525.196C174.629 523.805 177.46 523.352 179.998 523.869C180.065 523.881 180.131 523.897 180.199 523.91C182.382 524.402 184.327 525.623 185.434 527.59C187.424 531.125 186.239 535.505 185.261 539.439C184.285 543.374 183.756 548.084 186.587 550.986C185.653 548.235 186.575 544.953 188.808 543.092C190.496 541.689 192.845 541.163 194.988 541.598C195.193 541.642 195.395 541.692 195.594 541.752C196.075 541.893 196.539 542.087 196.976 542.331C200.316 544.196 201.669 548.491 201.188 552.285Z" fill="white"/>
<path d="M190.799 561.698C191.284 561.812 191.771 561.911 192.261 562H189.612C189.265 561.907 188.92 561.807 188.578 561.698C187.825 561.463 187.085 561.193 186.355 560.889C183.43 559.662 180.736 557.82 178.697 555.368C177.7 554.181 176.886 552.851 176.281 551.423C175.626 549.809 175.209 548.108 175.045 546.374C174.676 542.816 175.052 539.161 175.757 535.666C176.483 532.044 177.656 528.526 179.249 525.193C179.44 524.794 179.638 524.397 179.843 524.002C179.857 523.97 179.878 523.941 179.905 523.918C179.932 523.895 179.964 523.878 179.998 523.869C180.068 523.856 180.14 523.871 180.199 523.91C180.269 523.951 180.322 524.017 180.345 524.095C180.368 524.173 180.361 524.257 180.324 524.329C178.682 527.531 177.437 530.921 176.618 534.424C175.815 537.841 175.36 541.417 175.515 544.931C175.663 548.215 176.521 551.444 178.468 554.129C180.245 556.58 182.7 558.513 185.416 559.829C187.135 560.651 188.94 561.278 190.799 561.698Z" fill="#29B2FE"/>
<path d="M196.613 562H195.832C195.745 561.9 195.66 561.799 195.577 561.698C193.798 559.537 192.593 556.962 192.073 554.212C191.442 550.78 191.933 547.235 193.474 544.104C193.904 543.226 194.41 542.387 194.988 541.598C195.193 541.642 195.395 541.692 195.594 541.752C194.075 543.764 193.054 546.106 192.613 548.587C192.219 550.913 192.35 553.296 192.996 555.564C193.641 557.833 194.785 559.928 196.343 561.698C196.431 561.799 196.521 561.9 196.613 562Z" fill="#29B2FE"/>
<path d="M226.295 540.037H211.823L211.669 535.588C211.663 535.395 211.698 535.203 211.773 535.025C211.847 534.847 211.96 534.688 212.102 534.557C212.244 534.427 212.413 534.329 212.597 534.27C212.781 534.211 212.975 534.193 213.167 534.216L221.589 535.247H221.59C222.838 535.251 224.035 535.749 224.917 536.632C225.799 537.516 226.294 538.713 226.295 539.961V540.037Z" fill="#29B2FE"/>
<path d="M219.845 524.256H209.751C209.617 524.256 209.484 524.282 209.36 524.334C209.236 524.385 209.123 524.46 209.028 524.555C208.933 524.65 208.858 524.763 208.807 524.887C208.755 525.011 208.729 525.144 208.729 525.278V535.37C208.729 535.504 208.755 535.637 208.807 535.761C208.858 535.885 208.933 535.997 209.028 536.092C209.123 536.187 209.236 536.263 209.36 536.314C209.484 536.365 209.617 536.392 209.751 536.392H219.845C219.979 536.392 220.112 536.365 220.236 536.314C220.36 536.263 220.473 536.187 220.568 536.092C220.663 535.997 220.738 535.885 220.789 535.761C220.841 535.637 220.867 535.504 220.867 535.37V525.278C220.867 525.144 220.841 525.011 220.789 524.887C220.738 524.763 220.663 524.65 220.568 524.555C220.473 524.46 220.36 524.385 220.236 524.334C220.112 524.282 219.979 524.256 219.845 524.256Z" fill="#CCCCCC"/>
<path d="M217.572 531.802L212.806 532.73C212.523 532.785 212.23 532.725 211.992 532.564C211.753 532.403 211.588 532.154 211.532 531.872L211.166 529.991C211.111 529.708 211.171 529.415 211.332 529.177C211.493 528.938 211.742 528.773 212.024 528.718L216.79 527.79C217.073 527.735 217.366 527.795 217.604 527.956C217.843 528.116 218.008 528.365 218.064 528.648L218.43 530.529C218.485 530.811 218.425 531.104 218.264 531.343C218.103 531.582 217.854 531.747 217.572 531.802Z" fill="#3F3D56"/>
<path d="M216.618 529.58L212.981 530.288C212.915 530.301 212.846 530.287 212.789 530.249C212.733 530.211 212.694 530.153 212.681 530.086C212.668 530.02 212.682 529.951 212.72 529.895C212.758 529.838 212.817 529.8 212.883 529.787L216.52 529.079C216.587 529.066 216.656 529.08 216.712 529.117C216.768 529.155 216.807 529.214 216.82 529.28C216.833 529.347 216.819 529.416 216.781 529.472C216.743 529.528 216.685 529.567 216.618 529.58Z" fill="white"/>
<path d="M215.911 530.629L214.03 530.995C213.963 531.008 213.894 530.994 213.838 530.956C213.782 530.918 213.743 530.86 213.73 530.793C213.717 530.727 213.731 530.658 213.769 530.601C213.807 530.545 213.866 530.506 213.932 530.493L215.813 530.127C215.846 530.121 215.88 530.121 215.913 530.128C215.946 530.134 215.977 530.147 216.005 530.166C216.033 530.185 216.057 530.209 216.075 530.237C216.094 530.265 216.107 530.296 216.113 530.329C216.12 530.362 216.119 530.396 216.113 530.429C216.106 530.462 216.093 530.493 216.074 530.521C216.055 530.549 216.031 530.572 216.003 530.591C215.975 530.61 215.944 530.622 215.911 530.629Z" fill="white"/>
<path d="M220.867 525.278V526.619H208.729V525.278C208.729 525.144 208.755 525.011 208.807 524.887C208.858 524.763 208.933 524.65 209.028 524.555C209.123 524.46 209.236 524.385 209.36 524.334C209.484 524.282 209.617 524.256 209.751 524.256H219.845C219.979 524.256 220.112 524.282 220.236 524.334C220.36 524.385 220.473 524.46 220.568 524.555C220.663 524.65 220.738 524.763 220.789 524.887C220.841 525.011 220.867 525.144 220.867 525.278Z" fill="#B3B3B3"/>
<path d="M245.106 527.039C245.036 526.813 244.917 526.605 244.758 526.43C244.598 526.254 244.403 526.116 244.184 526.025C243.966 525.933 243.73 525.891 243.493 525.9C243.257 525.91 243.025 525.971 242.815 526.08L228.928 521.098L228.316 524.567L242.159 528.373C242.365 528.714 242.689 528.968 243.07 529.086C243.451 529.204 243.861 529.179 244.225 529.014C244.588 528.85 244.878 528.558 245.041 528.194C245.203 527.83 245.226 527.419 245.106 527.039Z" fill="#FFB8B8"/>
<path opacity="0.2" d="M245.106 527.039C245.036 526.813 244.917 526.605 244.758 526.43C244.598 526.254 244.403 526.116 244.184 526.025C243.966 525.933 243.73 525.891 243.493 525.9C243.257 525.91 243.025 525.971 242.815 526.08L228.928 521.098L228.316 524.567L242.159 528.373C242.365 528.714 242.689 528.968 243.07 529.086C243.451 529.204 243.861 529.179 244.225 529.014C244.588 528.85 244.878 528.558 245.041 528.194C245.203 527.83 245.226 527.419 245.106 527.039Z" fill="black"/>
<path d="M231.393 521.73L230.082 525.155C230.044 525.253 229.986 525.341 229.912 525.414C229.837 525.487 229.748 525.544 229.65 525.579C229.552 525.614 229.447 525.628 229.343 525.62C229.239 525.611 229.138 525.58 229.047 525.529L225.86 523.735C225.362 523.542 224.962 523.158 224.746 522.67C224.531 522.182 224.518 521.628 224.71 521.13C224.903 520.632 225.285 520.23 225.773 520.013C226.26 519.796 226.814 519.782 227.313 519.973L230.872 520.762C230.974 520.784 231.07 520.829 231.153 520.892C231.236 520.955 231.305 521.035 231.354 521.127C231.404 521.219 231.433 521.32 231.439 521.424C231.446 521.528 231.43 521.633 231.393 521.73Z" fill="#29B2FE"/>
<path d="M246.199 530.211L241.223 532.472L241.876 534.931C243.138 539.679 243.472 544.626 242.862 549.501L246.5 550.261L249.516 542.573L248.46 533.829L246.199 530.211Z" fill="#29B2FE"/>
<path d="M255.962 541.593C252.693 541.593 250.028 543.969 249.899 546.945H262.025C261.896 543.969 259.231 541.593 255.962 541.593Z" fill="#29B2FE"/>
<path d="M253.417 542.106C253.247 528.673 245.596 529.909 245.596 529.909C245.596 529.909 245.739 534.09 245.807 534.22C250.683 543.443 242.636 554.256 232.394 552.267C232.201 552.229 232.015 552.191 231.837 552.153C230.539 551.882 229.393 551.127 228.633 550.041C227.872 548.956 227.553 547.621 227.741 546.309C228.75 538.208 223.732 538.351 223.732 538.351H216.394L212.583 534.922C212.448 534.801 212.286 534.715 212.111 534.671C211.935 534.627 211.752 534.627 211.576 534.67C211.4 534.714 211.238 534.8 211.103 534.92C210.968 535.041 210.865 535.193 210.802 535.363L210.312 536.693C210.312 536.693 203.074 537.447 203.678 544.532H205.915C205.91 544.734 205.918 544.935 205.939 545.135L222.639 545C223.618 544.992 224.482 545.785 224.486 546.764C224.487 547.002 224.44 547.238 224.347 547.457C224.255 547.677 224.119 547.876 223.948 548.042C223.777 548.208 223.575 548.338 223.352 548.424C223.13 548.51 222.893 548.55 222.655 548.542L219.962 548.452C219.133 552.146 221.169 554.633 223.411 556.197C225.523 557.648 228.029 558.418 230.591 558.402H237.906C247.405 558.402 249.064 550.412 249.064 550.412C254.039 548.301 253.417 542.106 253.417 542.106Z" fill="white"/>
<path d="M255.51 562.774C260.194 562.774 263.991 558.977 263.991 554.294C263.991 549.61 260.194 545.814 255.51 545.814C250.825 545.814 247.028 549.61 247.028 554.294C247.028 558.977 250.825 562.774 255.51 562.774Z" fill="white"/>
<path d="M255.51 556.372C256.658 556.372 257.588 555.442 257.588 554.294C257.588 553.146 256.658 552.215 255.51 552.215C254.362 552.215 253.431 553.146 253.431 554.294C253.431 555.442 254.362 556.372 255.51 556.372Z" fill="#29B2FE"/>
<path d="M212.687 562.774C218.079 562.774 222.45 558.404 222.45 553.012C222.45 547.621 218.079 543.251 212.687 543.251C207.295 543.251 202.924 547.621 202.924 553.012C202.924 558.404 207.295 562.774 212.687 562.774Z" fill="white"/>
<path d="M212.687 555.405C214.009 555.405 215.08 554.334 215.08 553.012C215.08 551.691 214.009 550.62 212.687 550.62C211.365 550.62 210.294 551.691 210.294 553.012C210.294 554.334 211.365 555.405 212.687 555.405Z" fill="#29B2FE"/>
<path d="M241.237 533.14L239.447 528.278C239.353 528.025 239.311 527.756 239.322 527.486C239.332 527.216 239.396 526.951 239.509 526.706C239.623 526.461 239.783 526.24 239.982 526.057C240.18 525.874 240.413 525.732 240.666 525.639L245.799 523.749C246.245 523.585 246.718 523.51 247.193 523.529C247.668 523.548 248.135 523.661 248.566 523.86C248.997 524.059 249.385 524.341 249.708 524.69C250.03 525.039 250.28 525.448 250.445 525.894C250.593 526.294 250.668 526.718 250.668 527.144C250.666 527.686 250.543 528.221 250.309 528.709C250.075 529.197 249.734 529.628 249.313 529.968C249.008 530.212 248.666 530.405 248.299 530.539L241.237 533.14Z" fill="#29B2FE"/>
<path d="M250.593 527.144C250.592 527.675 250.473 528.199 250.243 528.677C250.013 529.156 249.679 529.577 249.266 529.909C248.631 529.742 248.04 529.438 247.534 529.019C247.029 528.6 246.62 528.077 246.338 527.484C246.055 526.892 245.905 526.245 245.897 525.588C245.89 524.932 246.026 524.282 246.295 523.683C246.812 523.571 247.348 523.575 247.863 523.697C248.378 523.819 248.86 524.054 249.272 524.386C249.684 524.718 250.017 525.138 250.245 525.615C250.474 526.093 250.592 526.615 250.593 527.144Z" fill="#29B2FE"/>
<path d="M204.959 545.512C206.125 545.512 207.07 544.365 207.07 542.95C207.07 541.534 206.125 540.387 204.959 540.387C203.793 540.387 202.848 541.534 202.848 542.95C202.848 544.365 203.793 545.512 204.959 545.512Z" fill="#29B2FE"/>
<path d="M232.864 552.021H234.712L235.592 547.228L232.863 547.228L232.864 552.021Z" fill="#FFB8B8"/>
<path d="M232.392 551.418L236.032 551.418H236.033C236.337 551.418 236.639 551.478 236.92 551.594C237.202 551.711 237.458 551.882 237.673 552.097C237.889 552.313 238.059 552.568 238.176 552.85C238.293 553.131 238.353 553.433 238.353 553.737V553.813L232.392 553.813L232.392 551.418Z" fill="#2F2E41"/>
<path d="M235.009 550.054C234.988 550.054 234.966 550.053 234.944 550.051L232.386 549.865C232.283 549.855 232.183 549.822 232.094 549.767C232.006 549.713 231.931 549.639 231.875 549.551C231.82 549.464 231.785 549.364 231.774 549.261C231.763 549.158 231.776 549.053 231.812 548.956L235.236 541.265C235.26 541.196 235.27 541.123 235.265 541.051C235.26 540.978 235.24 540.907 235.206 540.843C235.172 540.778 235.125 540.72 235.068 540.675C235.01 540.629 234.944 540.596 234.873 540.578C233.263 540.157 229.132 539.037 225.556 537.726C224.024 537.164 223.059 536.352 222.688 535.313C222.199 533.943 222.923 532.694 222.954 532.642L222.978 532.601L226.343 532.906L229.99 533.217L237.984 537.502C238.654 537.864 239.163 538.465 239.409 539.186C239.655 539.906 239.621 540.693 239.314 541.389L235.628 549.652C235.575 549.772 235.488 549.873 235.378 549.945C235.268 550.016 235.14 550.054 235.009 550.054Z" fill="black"/>
<path d="M226.928 517.691C228.973 517.691 230.631 516.033 230.631 513.988C230.631 511.943 228.973 510.285 226.928 510.285C224.883 510.285 223.224 511.943 223.224 513.988C223.224 516.033 224.883 517.691 226.928 517.691Z" fill="#FFB8B8"/>
<path d="M231.808 552.474H233.657L234.536 547.68L231.808 547.68L231.808 552.474Z" fill="#FFB8B8"/>
<path d="M231.336 551.87L234.977 551.87H234.977C235.282 551.87 235.583 551.93 235.865 552.047C236.146 552.163 236.402 552.334 236.618 552.549C236.833 552.765 237.004 553.021 237.121 553.302C237.237 553.583 237.297 553.885 237.297 554.19V554.265L231.337 554.265L231.336 551.87Z" fill="#2F2E41"/>
<path d="M233.954 550.506C233.932 550.506 233.911 550.505 233.889 550.503L231.331 550.317C231.227 550.307 231.127 550.274 231.039 550.22C230.95 550.165 230.875 550.092 230.82 550.004C230.764 549.916 230.73 549.817 230.719 549.713C230.708 549.61 230.72 549.505 230.756 549.408L234.18 541.717C234.204 541.649 234.214 541.576 234.209 541.503C234.204 541.431 234.184 541.36 234.15 541.295C234.117 541.23 234.07 541.173 234.012 541.127C233.955 541.081 233.888 541.048 233.817 541.03C232.207 540.609 228.076 539.489 224.501 538.178C222.969 537.616 222.004 536.805 221.633 535.766C221.144 534.396 221.867 533.146 221.898 533.094L221.923 533.053L225.287 533.359L228.935 533.669L236.929 537.954C237.598 538.317 238.107 538.918 238.354 539.638C238.6 540.358 238.566 541.145 238.258 541.842L234.573 550.104C234.52 550.224 234.433 550.325 234.323 550.397C234.213 550.468 234.085 550.506 233.954 550.506Z" fill="black"/>
<path d="M228.07 519.79L224.15 518.434C224.15 518.434 221.688 520.324 222.871 525.014C223.488 527.434 223.308 529.989 222.358 532.298C222.244 532.584 222.112 532.863 221.963 533.132C221.963 533.132 226.336 538.409 230.407 534.489L228.824 526.876C228.824 526.876 231.312 521.826 228.07 519.79Z" fill="#29B2FE"/>
<path d="M227.388 517.817C226.861 517.028 226.445 515.934 227.025 515.184C227.598 514.443 228.728 514.552 229.605 514.224C230.827 513.768 231.536 512.332 231.315 511.047C231.093 509.761 230.061 508.696 228.832 508.26C227.603 507.824 226.216 507.966 225.012 508.468C223.53 509.086 222.259 510.281 221.726 511.796C221.192 513.31 221.477 515.129 222.583 516.293C223.769 517.541 225.63 517.873 227.352 517.853" fill="black"/>
<path d="M223.943 511.088C223.278 511.629 222.265 511.389 221.552 510.914C220.839 510.44 220.261 509.764 219.489 509.392C218.129 508.736 216.485 509.172 215.162 509.899C213.838 510.625 212.665 511.629 211.267 512.199C209.869 512.769 208.084 512.797 207.026 511.721C206.765 512.475 206.744 513.292 206.965 514.059C207.186 514.826 207.638 515.507 208.26 516.007C208.882 516.508 209.643 516.805 210.44 516.857C211.237 516.909 212.03 516.714 212.712 516.299C214.244 515.366 215.09 513.41 216.808 512.895C217.759 512.61 218.78 512.84 219.741 513.088C220.702 513.337 221.704 513.605 222.673 513.394C223.643 513.182 224.55 512.311 224.427 511.326L223.943 511.088Z" fill="black"/>
<path d="M244.921 526.888C244.824 526.673 244.68 526.481 244.501 526.326C244.321 526.172 244.11 526.059 243.882 525.995C243.654 525.931 243.414 525.918 243.181 525.957C242.947 525.996 242.725 526.085 242.53 526.219L228.134 522.988L227.955 526.506L242.162 528.575C242.408 528.888 242.761 529.1 243.154 529.171C243.546 529.241 243.951 529.165 244.291 528.957C244.631 528.749 244.883 528.424 244.999 528.043C245.116 527.661 245.088 527.251 244.921 526.888Z" fill="#FFB8B8"/>
<path d="M230.658 523.312L229.78 526.872C229.755 526.974 229.708 527.068 229.643 527.15C229.578 527.232 229.496 527.299 229.403 527.346C229.31 527.393 229.208 527.42 229.104 527.424C229 527.428 228.896 527.41 228.799 527.37L225.415 525.984C224.897 525.853 224.452 525.523 224.178 525.064C223.903 524.606 223.822 524.058 223.951 523.54C224.081 523.021 224.41 522.576 224.868 522.3C225.326 522.025 225.874 521.942 226.393 522.071L230.022 522.415C230.126 522.425 230.226 522.457 230.317 522.509C230.407 522.561 230.485 522.632 230.545 522.718C230.606 522.803 230.647 522.9 230.667 523.002C230.686 523.105 230.683 523.21 230.658 523.312Z" fill="#29B2FE"/>
<path d="M243.258 529.683C243.841 529.683 244.314 529.211 244.314 528.628C244.314 528.045 243.841 527.572 243.258 527.572C242.675 527.572 242.203 528.045 242.203 528.628C242.203 529.211 242.675 529.683 243.258 529.683Z" fill="#29B2FE"/>
</g>
<path d="M116.025 547.555C116.138 548.443 116.555 549.256 117 550.039C117.015 550.066 117.03 550.092 117.046 550.119H121.67C121.763 550.095 121.856 550.068 121.948 550.039C122.47 549.88 122.963 549.638 123.408 549.321C125.109 548.096 125.763 545.78 125.468 543.705C125.284 542.416 124.718 541.1 123.616 540.406C123.018 540.041 122.304 539.916 121.617 540.056C121.6 540.059 121.582 540.063 121.564 540.066C121.279 540.121 121.008 540.237 120.769 540.404C120.531 540.571 120.331 540.787 120.183 541.037C119.657 541.97 119.97 543.126 120.228 544.165C120.486 545.203 120.626 546.446 119.878 547.212C119.988 546.892 120.01 546.548 119.943 546.216C119.875 545.885 119.721 545.577 119.495 545.324C119.269 545.072 118.98 544.885 118.658 544.781C118.336 544.677 117.992 544.661 117.661 544.734C117.607 544.746 117.554 544.759 117.501 544.775C117.374 544.812 117.252 544.863 117.136 544.928C116.255 545.42 115.898 546.554 116.025 547.555Z" fill="white"/>
<path d="M118.767 550.039C118.639 550.069 118.51 550.095 118.381 550.119H119.08C119.171 550.094 119.263 550.068 119.353 550.039C119.551 549.977 119.747 549.906 119.939 549.826C120.72 549.509 121.413 549.009 121.961 548.369C122.224 548.055 122.439 547.704 122.598 547.327C122.771 546.901 122.881 546.453 122.924 545.995C123.004 545.049 122.941 544.096 122.737 543.169C122.545 542.213 122.235 541.285 121.815 540.405C121.764 540.299 121.712 540.195 121.658 540.091C121.654 540.082 121.649 540.074 121.642 540.068C121.635 540.062 121.626 540.058 121.617 540.056C121.599 540.052 121.58 540.056 121.564 540.066C121.546 540.077 121.532 540.094 121.526 540.115C121.52 540.136 121.522 540.158 121.531 540.177C121.965 541.022 122.293 541.916 122.509 542.841C122.732 543.748 122.83 544.681 122.8 545.614C122.784 546.482 122.513 547.326 122.021 548.042C121.542 548.686 120.913 549.202 120.187 549.546C119.734 549.763 119.257 549.928 118.767 550.039Z" fill="#29B2FE"/>
<path d="M117.232 550.119H117.438C117.461 550.093 117.484 550.066 117.506 550.039C117.975 549.469 118.293 548.789 118.43 548.063C118.597 547.158 118.467 546.222 118.061 545.396C117.947 545.164 117.814 544.943 117.661 544.734C117.607 544.746 117.554 544.759 117.501 544.775C117.902 545.306 118.172 545.924 118.288 546.579C118.392 547.193 118.357 547.822 118.187 548.42C118.017 549.019 117.715 549.572 117.303 550.039C117.28 550.066 117.257 550.093 117.232 550.119Z" fill="#29B2FE"/>
</g>
<defs>
<clipPath id="clip0_8_52">
<rect width="378" height="660" fill="white"/>
</clipPath>
<clipPath id="clip1_8_52">
<rect width="190" height="40" fill="white" transform="translate(87 551)"/>
</clipPath>
<clipPath id="clip2_8_52">
<rect width="125" height="55" fill="white" transform="translate(165 508)"/>
</clipPath>
</defs>
</svg>
